<svg xmlns="http://www.w3.org/2000/svg" viewBox="0 0 56 56"><defs><style>.a{fill:#fff;}.b,.c,.d{fill:none;stroke-width:2px;}.b{stroke:#222;}.b,.c{stroke-linecap:square;}.c,.d{stroke:#ff1e56;}</style></defs><title>Asset 4</title><circle class="a" cx="28" cy="28" r="28"/><path class="b" d="M30.8,22l-2.9,3.1a5.5,5.5,0,0,1-7.7,0l-.2-.3,6.7-6.9a9.3,9.3,0,0,1,13.5,0A10.1,10.1,0,0,1,41.6,30"/><path class="c" d="M32,26.4l4.8,5a4.2,4.2,0,0,1,0,5.9l-2.2,2.3A8,8,0,0,1,29,42a8.2,8.2,0,0,1-5.7-2.4l-7.5-7.9a10,10,0,0,1,0-13.8A8.7,8.7,0,0,1,22.3,15"/><path class="d" d="M36,38l-5-5"/><path class="d" d="M33,41l-5-5"/></svg>