<svg xmlns="http://www.w3.org/2000/svg" viewBox="0 0 30 30"><defs><style>.cls-1{fill:#606060;}.cls-2{fill:#5dd844;}</style></defs><title>Call button</title><g id="Layer_2" data-name="Layer 2"><g id="Layer_1-2" data-name="Layer 1"><circle class="cls-1" cx="15" cy="15" r="15"/><path class="cls-2" d="M23,18.38a11.44,11.44,0,0,1-3.53-.56,1,1,0,0,0-1,.24L16.9,20A15.18,15.18,0,0,1,10,13.2l2-1.66a1,1,0,0,0,.24-1A11.15,11.15,0,0,1,11.64,7a1,1,0,0,0-1-1H7.19C6.65,6,6,6.24,6,7A17.15,17.15,0,0,0,23,24a1,1,0,0,0,1-1.18V19.37A1,1,0,0,0,23,18.38Z"/></g></g></svg>